<svg width="197" height="17" viewBox="0 0 197 17" fill="none" xmlns="http://www.w3.org/2000/svg">
<path d="M5.47727 16H0.100852V1.45455H5.47017C6.95218 1.45455 8.22822 1.74574 9.2983 2.32812C10.3731 2.90578 11.2017 3.73911 11.7841 4.82812C12.3665 5.91241 12.6577 7.20975 12.6577 8.72017C12.6577 10.2353 12.3665 11.5374 11.7841 12.6264C11.2064 13.7154 10.3802 14.5511 9.3054 15.1335C8.23059 15.7112 6.95455 16 5.47727 16ZM3.61648 13.0028H5.34233C6.15672 13.0028 6.84564 12.8655 7.40909 12.5909C7.97727 12.3116 8.40578 11.8594 8.6946 11.2344C8.98816 10.6046 9.13494 9.76657 9.13494 8.72017C9.13494 7.67377 8.98816 6.84044 8.6946 6.22017C8.40104 5.59517 7.9678 5.14536 7.39489 4.87074C6.8267 4.59138 6.12595 4.4517 5.29261 4.4517H3.61648V13.0028ZM19.4097 16.206C18.2686 16.206 17.2837 15.9811 16.4551 15.5312C15.6313 15.0767 14.9968 14.4304 14.5517 13.5923C14.1114 12.7495 13.8912 11.7481 13.8912 10.5881C13.8912 9.46117 14.1137 8.47633 14.5588 7.63352C15.0039 6.78598 15.6313 6.12784 16.4409 5.65909C17.2506 5.18561 18.2046 4.94886 19.3031 4.94886C20.0796 4.94886 20.7899 5.0696 21.4338 5.31108C22.0777 5.55256 22.6341 5.91004 23.1028 6.38352C23.5716 6.85701 23.9362 7.44176 24.1966 8.13778C24.457 8.82907 24.5872 9.62216 24.5872 10.517V11.3835H15.1057V9.36648H21.3557C21.3509 8.99716 21.2634 8.66809 21.0929 8.37926C20.9224 8.09044 20.6881 7.86553 20.3898 7.70455C20.0962 7.53883 19.7577 7.45597 19.3741 7.45597C18.9859 7.45597 18.6379 7.54356 18.3301 7.71875C18.0223 7.8892 17.7785 8.12358 17.5986 8.42188C17.4187 8.71544 17.324 9.04924 17.3145 9.4233V11.4759C17.3145 11.9209 17.4021 12.3116 17.5773 12.6477C17.7525 12.9792 18.001 13.2372 18.323 13.4219C18.645 13.6065 19.0285 13.6989 19.4736 13.6989C19.7813 13.6989 20.0607 13.6562 20.3116 13.571C20.5626 13.4858 20.778 13.3603 20.958 13.1946C21.1379 13.0289 21.2728 12.8253 21.3628 12.5838L24.5517 12.6761C24.4191 13.3911 24.1279 14.0137 23.6781 14.544C23.233 15.0696 22.6483 15.4792 21.9239 15.7727C21.1994 16.0616 20.3614 16.206 19.4097 16.206ZM36.2504 5.09091L32.5075 16H28.5303L24.7945 5.09091H28.4521L30.4621 12.6051H30.5757L32.5928 5.09091H36.2504ZM43.3398 5.09091V7.64773H36.4577V5.09091H43.3398ZM37.8994 2.47727H41.3724V12.5696C41.3724 12.7827 41.4056 12.9555 41.4719 13.0881C41.5429 13.2159 41.6447 13.3082 41.7773 13.3651C41.9098 13.4171 42.0685 13.4432 42.2531 13.4432C42.3857 13.4432 42.5254 13.4313 42.6722 13.4077C42.8237 13.3793 42.9373 13.3556 43.0131 13.3366L43.5386 15.8438C43.3729 15.8911 43.1385 15.9503 42.8355 16.0213C42.5372 16.0923 42.1797 16.1373 41.7631 16.1562C40.9487 16.1941 40.2503 16.0994 39.6679 15.8722C39.0902 15.6402 38.6475 15.2803 38.3398 14.7926C38.0367 14.3049 37.89 13.6918 37.8994 12.9531V2.47727ZM49.6869 16.206C48.5411 16.206 47.5563 15.9716 46.7324 15.5028C45.9133 15.0294 45.2812 14.3712 44.8361 13.5284C44.3957 12.6809 44.1756 11.6984 44.1756 10.581C44.1756 9.45881 44.3957 8.47633 44.8361 7.63352C45.2812 6.78598 45.9133 6.12784 46.7324 5.65909C47.5563 5.18561 48.5411 4.94886 49.6869 4.94886C50.8328 4.94886 51.8152 5.18561 52.6344 5.65909C53.4582 6.12784 54.0903 6.78598 54.5307 7.63352C54.9758 8.47633 55.1983 9.45881 55.1983 10.581C55.1983 11.6984 54.9758 12.6809 54.5307 13.5284C54.0903 14.3712 53.4582 15.0294 52.6344 15.5028C51.8152 15.9716 50.8328 16.206 49.6869 16.206ZM49.7082 13.5852C50.1249 13.5852 50.4777 13.4574 50.7665 13.2017C51.0553 12.946 51.2755 12.5909 51.427 12.1364C51.5832 11.6818 51.6614 11.1562 51.6614 10.5597C51.6614 9.9536 51.5832 9.4233 51.427 8.96875C51.2755 8.5142 51.0553 8.15909 50.7665 7.90341C50.4777 7.64773 50.1249 7.51989 49.7082 7.51989C49.2774 7.51989 48.9128 7.64773 48.6145 7.90341C48.3209 8.15909 48.096 8.5142 47.9398 8.96875C47.7883 9.4233 47.7125 9.9536 47.7125 10.5597C47.7125 11.1562 47.7883 11.6818 47.9398 12.1364C48.096 12.5909 48.3209 12.946 48.6145 13.2017C48.9128 13.4574 49.2774 13.5852 49.7082 13.5852ZM61.6697 16.206C60.5239 16.206 59.5391 15.9716 58.7152 15.5028C57.8961 15.0294 57.264 14.3712 56.8189 13.5284C56.3786 12.6809 56.1584 11.6984 56.1584 10.581C56.1584 9.45881 56.3786 8.47633 56.8189 7.63352C57.264 6.78598 57.8961 6.12784 58.7152 5.65909C59.5391 5.18561 60.5239 4.94886 61.6697 4.94886C62.8156 4.94886 63.7981 5.18561 64.6172 5.65909C65.4411 6.12784 66.0732 6.78598 66.5135 7.63352C66.9586 8.47633 67.1811 9.45881 67.1811 10.581C67.1811 11.6984 66.9586 12.6809 66.5135 13.5284C66.0732 14.3712 65.4411 15.0294 64.6172 15.5028C63.7981 15.9716 62.8156 16.206 61.6697 16.206ZM61.6911 13.5852C62.1077 13.5852 62.4605 13.4574 62.7493 13.2017C63.0381 12.946 63.2583 12.5909 63.4098 12.1364C63.5661 11.6818 63.6442 11.1562 63.6442 10.5597C63.6442 9.9536 63.5661 9.4233 63.4098 8.96875C63.2583 8.5142 63.0381 8.15909 62.7493 7.90341C62.4605 7.64773 62.1077 7.51989 61.6911 7.51989C61.2602 7.51989 60.8956 7.64773 60.5973 7.90341C60.3037 8.15909 60.0788 8.5142 59.9226 8.96875C59.7711 9.4233 59.6953 9.9536 59.6953 10.5597C59.6953 11.1562 59.7711 11.6818 59.9226 12.1364C60.0788 12.5909 60.3037 12.946 60.5973 13.2017C60.8956 13.4574 61.2602 13.5852 61.6911 13.5852ZM72.0332 1.45455V16H68.5602V1.45455H72.0332ZM83.368 8.42188L80.179 8.5071C80.1459 8.27983 80.0559 8.0786 79.9092 7.90341C79.7624 7.72348 79.5706 7.58381 79.3339 7.48438C79.1019 7.38021 78.832 7.32812 78.5242 7.32812C78.1218 7.32812 77.7785 7.40862 77.4944 7.5696C77.215 7.73059 77.0777 7.94839 77.0825 8.22301C77.0777 8.43608 77.1629 8.62074 77.3381 8.77699C77.5181 8.93324 77.8377 9.05871 78.2969 9.15341L80.3992 9.55114C81.4882 9.75947 82.2979 10.1051 82.8282 10.5881C83.3632 11.071 83.6331 11.7102 83.6379 12.5057C83.6331 13.2538 83.4106 13.9048 82.9702 14.4588C82.5346 15.0128 81.938 15.4437 81.1805 15.7514C80.4229 16.0545 79.5564 16.206 78.581 16.206C77.0233 16.206 75.7946 15.8864 74.895 15.2472C74.0001 14.6032 73.4887 13.7415 73.3609 12.6619L76.7913 12.5767C76.867 12.9744 77.0635 13.2775 77.3808 13.4858C77.698 13.6941 78.1028 13.7983 78.5952 13.7983C79.0403 13.7983 79.4025 13.7154 79.6819 13.5497C79.9612 13.384 80.1033 13.1638 80.108 12.8892C80.1033 12.643 79.9944 12.4465 79.7813 12.2997C79.5682 12.1482 79.2344 12.0298 78.7799 11.9446L76.8765 11.5824C75.7827 11.3835 74.9683 11.0166 74.4333 10.4815C73.8983 9.94176 73.6331 9.25521 73.6379 8.42188C73.6331 7.69271 73.8272 7.07008 74.2202 6.55398C74.6132 6.03314 75.1719 5.63542 75.8964 5.3608C76.6208 5.08617 77.4754 4.94886 78.4603 4.94886C79.9376 4.94886 81.1023 5.259 81.9546 5.87926C82.8069 6.49479 83.278 7.34233 83.368 8.42188Z" fill="#E5E5E5"/>
<path d="M95.2544 5.09091V7.07955H88.8055V5.09091H95.2544ZM90.4178 16V4.06108C90.4178 3.32718 90.5693 2.71638 90.8723 2.22869C91.1801 1.741 91.592 1.37642 92.1081 1.13494C92.6242 0.893465 93.1971 0.772726 93.8268 0.772726C94.2719 0.772726 94.6673 0.808238 95.0129 0.879261C95.3586 0.950284 95.6143 1.0142 95.78 1.07102L95.2686 3.05966C95.1597 3.02651 95.0224 2.99337 94.8567 2.96023C94.691 2.92235 94.5063 2.90341 94.3027 2.90341C93.8245 2.90341 93.4859 3.01941 93.2871 3.25142C93.0929 3.47869 92.9959 3.8054 92.9959 4.23153V16H90.4178ZM101.216 16.2131C100.151 16.2131 99.2276 15.9787 98.4464 15.5099C97.6651 15.0412 97.0591 14.3854 96.6282 13.5426C96.2021 12.6998 95.989 11.715 95.989 10.5881C95.989 9.46117 96.2021 8.47396 96.6282 7.62642C97.0591 6.77888 97.6651 6.12074 98.4464 5.65199C99.2276 5.18324 100.151 4.94886 101.216 4.94886C102.282 4.94886 103.205 5.18324 103.986 5.65199C104.767 6.12074 105.371 6.77888 105.797 7.62642C106.228 8.47396 106.444 9.46117 106.444 10.5881C106.444 11.715 106.228 12.6998 105.797 13.5426C105.371 14.3854 104.767 15.0412 103.986 15.5099C103.205 15.9787 102.282 16.2131 101.216 16.2131ZM101.23 14.1534C101.808 14.1534 102.291 13.9948 102.679 13.6776C103.068 13.3556 103.356 12.9247 103.546 12.3849C103.74 11.8452 103.837 11.2438 103.837 10.581C103.837 9.91335 103.74 9.30966 103.546 8.76989C103.356 8.22538 103.068 7.79214 102.679 7.47017C102.291 7.1482 101.808 6.98722 101.23 6.98722C100.639 6.98722 100.146 7.1482 99.7532 7.47017C99.3649 7.79214 99.0737 8.22538 98.8796 8.76989C98.6902 9.30966 98.5955 9.91335 98.5955 10.581C98.5955 11.2438 98.6902 11.8452 98.8796 12.3849C99.0737 12.9247 99.3649 13.3556 99.7532 13.6776C100.146 13.9948 100.639 14.1534 101.23 14.1534ZM108.226 16V5.09091H110.719V6.90909H110.832C111.031 6.27936 111.372 5.79403 111.855 5.45312C112.343 5.10748 112.899 4.93466 113.524 4.93466C113.666 4.93466 113.825 4.94176 114 4.95597C114.18 4.96544 114.329 4.98201 114.447 5.00568V7.37074C114.338 7.33286 114.166 7.29972 113.929 7.27131C113.697 7.23816 113.472 7.22159 113.254 7.22159C112.785 7.22159 112.364 7.32339 111.99 7.52699C111.621 7.72585 111.329 8.00284 111.116 8.35795C110.903 8.71307 110.797 9.12263 110.797 9.58665V16H108.226ZM120.43 16V1.45455H123.065V13.7912H129.471V16H120.43ZM131.244 16V5.09091H133.815V16H131.244ZM132.537 3.54261C132.13 3.54261 131.779 3.40767 131.486 3.13778C131.192 2.86316 131.046 2.53409 131.046 2.15057C131.046 1.76231 131.192 1.43324 131.486 1.16335C131.779 0.88873 132.13 0.75142 132.537 0.75142C132.949 0.75142 133.299 0.88873 133.588 1.16335C133.882 1.43324 134.029 1.76231 134.029 2.15057C134.029 2.53409 133.882 2.86316 133.588 3.13778C133.299 3.40767 132.949 3.54261 132.537 3.54261ZM145.804 5.09091L141.919 16H139.078L135.193 5.09091H137.934L140.441 13.1946H140.555L143.069 5.09091H145.804ZM151.641 16.2131C150.547 16.2131 149.603 15.9858 148.807 15.5312C148.017 15.072 147.408 14.4233 146.982 13.5852C146.556 12.7424 146.343 11.7505 146.343 10.6094C146.343 9.48722 146.556 8.50237 146.982 7.65483C147.413 6.80256 148.014 6.13968 148.786 5.66619C149.558 5.18797 150.465 4.94886 151.506 4.94886C152.179 4.94886 152.813 5.05777 153.41 5.27557C154.011 5.48864 154.541 5.82008 155.001 6.26989C155.465 6.7197 155.829 7.29261 156.094 7.98864C156.359 8.67992 156.492 9.50379 156.492 10.4602V11.2486H147.55V9.51562H154.028C154.023 9.0232 153.916 8.58523 153.708 8.2017C153.5 7.81345 153.208 7.50805 152.834 7.28551C152.465 7.06297 152.034 6.9517 151.542 6.9517C151.016 6.9517 150.555 7.07955 150.157 7.33523C149.759 7.58617 149.449 7.91761 149.226 8.32955C149.009 8.73674 148.897 9.18419 148.893 9.67188V11.1847C148.893 11.8191 149.009 12.3636 149.241 12.8182C149.473 13.268 149.797 13.6136 150.214 13.8551C150.63 14.0919 151.118 14.2102 151.677 14.2102C152.051 14.2102 152.389 14.1581 152.692 14.054C152.995 13.9451 153.258 13.7865 153.481 13.5781C153.703 13.3698 153.871 13.1117 153.985 12.804L156.386 13.0739C156.234 13.7083 155.945 14.2623 155.519 14.7358C155.098 15.2045 154.558 15.5691 153.9 15.8295C153.242 16.0852 152.489 16.2131 151.641 16.2131ZM160.46 16L157.378 5.09091H159.998L161.916 12.7614H162.015L163.976 5.09091H166.568L168.528 12.7188H168.635L170.524 5.09091H173.152L170.062 16H167.385L165.339 8.62784H165.19L163.145 16H160.46ZM174.547 16V5.09091H177.118V16H174.547ZM175.839 3.54261C175.432 3.54261 175.082 3.40767 174.788 3.13778C174.495 2.86316 174.348 2.53409 174.348 2.15057C174.348 1.76231 174.495 1.43324 174.788 1.16335C175.082 0.88873 175.432 0.75142 175.839 0.75142C176.251 0.75142 176.602 0.88873 176.891 1.16335C177.184 1.43324 177.331 1.76231 177.331 2.15057C177.331 2.53409 177.184 2.86316 176.891 3.13778C176.602 3.40767 176.251 3.54261 175.839 3.54261ZM179.362 16V5.09091H181.855V6.90909H181.968C182.167 6.27936 182.508 5.79403 182.991 5.45312C183.479 5.10748 184.035 4.93466 184.66 4.93466C184.802 4.93466 184.961 4.94176 185.136 4.95597C185.316 4.96544 185.465 4.98201 185.583 5.00568V7.37074C185.474 7.33286 185.302 7.29972 185.065 7.27131C184.833 7.23816 184.608 7.22159 184.39 7.22159C183.921 7.22159 183.5 7.32339 183.126 7.52699C182.757 7.72585 182.465 8.00284 182.252 8.35795C182.039 8.71307 181.933 9.12263 181.933 9.58665V16H179.362ZM191.272 16.2131C190.178 16.2131 189.233 15.9858 188.438 15.5312C187.647 15.072 187.039 14.4233 186.613 13.5852C186.186 12.7424 185.973 11.7505 185.973 10.6094C185.973 9.48722 186.186 8.50237 186.613 7.65483C187.043 6.80256 187.645 6.13968 188.417 5.66619C189.188 5.18797 190.095 4.94886 191.137 4.94886C191.809 4.94886 192.444 5.05777 193.04 5.27557C193.641 5.48864 194.172 5.82008 194.631 6.26989C195.095 6.7197 195.46 7.29261 195.725 7.98864C195.99 8.67992 196.123 9.50379 196.123 10.4602V11.2486H187.181V9.51562H193.658C193.653 9.0232 193.547 8.58523 193.338 8.2017C193.13 7.81345 192.839 7.50805 192.465 7.28551C192.096 7.06297 191.665 6.9517 191.172 6.9517C190.647 6.9517 190.185 7.07955 189.787 7.33523C189.39 7.58617 189.079 7.91761 188.857 8.32955C188.639 8.73674 188.528 9.18419 188.523 9.67188V11.1847C188.523 11.8191 188.639 12.3636 188.871 12.8182C189.103 13.268 189.427 13.6136 189.844 13.8551C190.261 14.0919 190.748 14.2102 191.307 14.2102C191.681 14.2102 192.02 14.1581 192.323 14.054C192.626 13.9451 192.889 13.7865 193.111 13.5781C193.334 13.3698 193.502 13.1117 193.615 12.804L196.016 13.0739C195.864 13.7083 195.576 14.2623 195.15 14.7358C194.728 15.2045 194.188 15.5691 193.53 15.8295C192.872 16.0852 192.119 16.2131 191.272 16.2131Z" fill="#F4F4F4"/>
</svg>