<svg alt="Eufaturo" xmlns="http://www.w3.org/2000/svg" fill="none" viewBox="0 0 797 144"><path fill="#fff" fill-rule="evenodd" d="m71.6915.000001.442.000002c7.317-.000007 13.4655-.000013 18.656.176901l3.6438.124193c2.2289.075967 3.5986 2.470953 2.5339 4.430523l-5.2814 9.72018c-.9042 1.6641-2.6701 2.6711-4.5636 2.6333C82.8981 17.0007 77.9614 17 72 17c-9.9787 0-17.0371.0046-22.5843.3831-5.4709.3733-8.8483 1.0816-11.5298 2.1923-8.2901 3.4339-14.8766 10.0204-18.3105 18.3105-1.1107 2.6815-1.819 6.0589-2.1923 11.5298C17.0046 54.9629 17 62.0213 17 72c0 9.9787.0046 17.0371.3831 22.5843.3733 5.4707 1.0816 8.8487 2.1923 11.5297 3.4339 8.29 10.0204 14.877 18.3105 18.311 2.6815 1.11 6.0589 1.819 11.5298 2.192 5.5472.378 12.6056.383 22.5843.383 9.9787 0 17.0371-.005 22.5843-.383 5.4707-.373 8.8487-1.082 11.5297-2.192 8.29-3.434 14.877-10.021 18.311-18.311 1.11-2.681 1.819-6.059 2.192-11.5297.338-4.9561.378-11.1185.382-19.4922.001-1.8938 1.071-3.6271 2.765-4.4741l9.894-4.9472c1.995-.9973 4.342.4532 4.342 2.6833v3.9547c0 9.6009 0 17.2389-.423 23.4327-.432 6.3365-1.335 11.7805-3.446 16.8785-5.16 12.455-15.056 22.351-27.511 27.511-5.098 2.111-10.542 3.014-16.8785 3.446-6.1938.423-13.8318.423-23.4327.423h-.6176c-9.6009 0-17.2389 0-23.4327-.423-6.3365-.432-11.7801-1.335-16.8782-3.446-12.4556-5.16-22.35157-15.056-27.51084-27.511C1.75773 107.522.854855 102.078.422523 95.7415c-.422608-6.1939-.422569-13.832-.422522-23.433v-.617c-.000047-9.601-.000086-17.2391.422522-23.433C.854855 41.922 1.75773 36.4784 3.86946 31.3803 9.02873 18.9247 18.9247 9.02873 31.3803 3.86946 36.4784 1.75773 41.922.854855 48.2585.422523c6.1939-.422608 13.832-.422569 23.433-.422522Z" clip-rule="evenodd"></path><path fill="#fff" fill-rule="evenodd" d="M143.214 27.3641c1.37.744 1.399 2.6996.053 3.4851l-5.838 3.4053c-25.116 14.6509-45.2948 36.4553-57.9601 62.6287-1.1983 2.4762-3.5208 4.2198-6.2332 4.6788-2.7123.459-5.4791-.424-7.4253-2.3677l-29.3162-29.285c-1.319-1.3176-1.5528-3.3717-.5637-4.952l5.5651-8.8917c1.0228-1.6341 3.2993-1.8933 4.6632-.5308l23.5321 23.507c13.6123-23.6087 32.9451-43.4772 56.2721-57.7391 1.789-1.094 4.026-1.1211 5.869-.1201l11.382 6.1815Z" clip-rule="evenodd"></path><path fill="#fff" d="M756.924 115.6c-8.107 0-15.147-1.653-21.12-4.96-5.974-3.307-10.614-8-13.92-14.0798-3.307-6.1867-4.96-13.44-4.96-21.76 0-6.2934.906-11.8934 2.72-16.8 1.92-5.0134 4.64-9.28 8.16-12.8 3.52-3.6267 7.733-6.3467 12.64-8.16 4.906-1.92 10.4-2.88 16.48-2.88 8.106 0 15.146 1.6533 21.12 4.96 5.973 3.3066 10.613 8 13.92 14.08 3.306 6.08 4.96 13.28 4.96 21.6 0 6.2933-.96 11.9466-2.88 16.96-1.814 5.0133-4.48 9.3328-8 12.9598-3.52 3.52-7.734 6.24-12.64 8.16-4.907 1.813-10.4 2.72-16.48 2.72Zm0-15.2c3.946 0 7.413-.9598 10.4-2.8798 2.986-1.92 5.28-4.7467 6.88-8.48 1.706-3.84 2.56-8.5867 2.56-14.24 0-8.5334-1.814-14.88-5.44-19.04-3.627-4.2667-8.427-6.4-14.4-6.4-3.947 0-7.414.96-10.4 2.88-2.987 1.8133-5.334 4.64-7.04 8.48-1.6 3.7333-2.4 8.4266-2.4 14.08 0 8.4266 1.813 14.8266 5.44 19.2 3.626 4.2666 8.426 6.3998 14.4 6.3998Z"></path><path fill="#fff" d="M670.078 115.28c-3.307 0-5.867-.853-7.68-2.56-1.707-1.813-2.56-4.373-2.56-7.68V44.5599c0-3.3067.853-5.8134 2.56-7.52 1.706-1.7067 4.106-2.56 7.2-2.56 3.093 0 5.493.8533 7.2 2.56 1.706 1.7066 2.56 4.2133 2.56 7.52v10.08h-1.6c1.493-6.4 4.426-11.2534 8.8-14.56 4.373-3.3067 10.186-5.28 17.44-5.92 2.24-.2134 4 .3733 5.28 1.76 1.386 1.28 2.186 3.3066 2.4 6.08.213 2.6666-.427 4.8533-1.92 6.56-1.387 1.6-3.52 2.56-6.4 2.88l-3.52.32c-6.507.64-11.414 2.6666-14.72 6.08-3.307 3.3066-4.96 8-4.96 14.08V105.04c0 3.307-.854 5.867-2.56 7.68-1.707 1.707-4.214 2.56-7.52 2.56Z"></path><path fill="#fff" d="M595.501 115.6c-6.506 0-11.893-1.173-16.16-3.52-4.266-2.453-7.466-6.08-9.6-10.88-2.026-4.7995-3.04-10.7729-3.04-17.9195v-38.72c0-3.4134.854-5.92 2.56-7.52 1.707-1.7067 4.16-2.56 7.36-2.56s5.654.8533 7.36 2.56c1.814 1.6 2.72 4.1066 2.72 7.52v39.04c0 5.5466 1.12 9.6533 3.36 12.32 2.24 2.6666 5.814 4 10.72 4 5.334 0 9.707-1.8134 13.12-5.44 3.414-3.7334 5.12-8.64 5.12-14.72v-35.2c0-3.4134.854-5.92 2.56-7.52 1.707-1.7067 4.16-2.56 7.36-2.56s5.654.8533 7.36 2.56c1.814 1.6 2.72 4.1066 2.72 7.52V105.04c0 6.827-3.253 10.24-9.76 10.24-3.093 0-5.493-.853-7.2-2.56-1.706-1.813-2.56-4.373-2.56-7.68V92.8805l2.24 4.8c-2.24 5.7595-5.653 10.1865-10.24 13.2795-4.48 3.094-9.813 4.64-16 4.64Z"></path><path fill="#fff" d="M541.615 115.6c-6.933 0-12.747-1.173-17.44-3.52-4.587-2.347-8-5.76-10.24-10.24-2.24-4.5865-3.36-10.2399-3.36-16.9599v-34.08h-8.32c-2.56 0-4.533-.64-5.92-1.92-1.387-1.3867-2.08-3.2533-2.08-5.6 0-2.4533.693-4.32 2.08-5.6 1.387-1.28 3.36-1.92 5.92-1.92h8.32v-14.56c0-3.3066.853-5.8133 2.56-7.52 1.813-1.7067 4.32-2.56 7.52-2.56 3.2 0 5.653.8533 7.36 2.56 1.707 1.7067 2.56 4.2134 2.56 7.52v14.56h16.96c2.56 0 4.533.64 5.92 1.92 1.387 1.28 2.08 3.1467 2.08 5.6 0 2.3467-.693 4.2133-2.08 5.6-1.387 1.28-3.36 1.92-5.92 1.92h-16.96v32.96c0 5.12 1.12 8.96 3.36 11.52 2.24 2.56 5.867 3.84 10.88 3.84 1.813 0 3.413-.16 4.8-.48 1.387-.32 2.613-.5333 3.68-.64 1.28-.1066 2.347.32 3.2 1.28.853.8529 1.28 2.6669 1.28 5.4399 0 2.133-.373 4.053-1.12 5.76-.64 1.6-1.867 2.72-3.68 3.36-1.387.427-3.2.8-5.44 1.12-2.24.427-4.213.64-5.92.64Z"></path><path fill="#fff" d="M444.035 115.6c-5.653 0-10.72-1.067-15.2-3.2-4.373-2.24-7.84-5.227-10.4-8.96-2.453-3.7332-3.68-7.9465-3.68-12.6398 0-5.76 1.493-10.2934 4.48-13.6 2.987-3.4134 7.84-5.8667 14.56-7.36 6.72-1.4934 15.733-2.24 27.04-2.24h8v11.52h-7.84c-6.613 0-11.893.32-15.84.96-3.947.64-6.773 1.76-8.48 3.36-1.6 1.4933-2.4 3.6266-2.4 6.4 0 3.52 1.227 6.4 3.68 8.64 2.453 2.2398 5.867 3.3598 10.24 3.3598 3.52 0 6.613-.8 9.28-2.3998 2.773-1.7067 4.96-4 6.56-6.88 1.6-2.88 2.4-6.1867 2.4-9.92v-18.4c0-5.3334-1.173-9.1734-3.52-11.52-2.347-2.3467-6.293-3.52-11.84-3.52-3.093 0-6.453.3733-10.08 1.12-3.52.7466-7.253 2.0266-11.2 3.84-2.027.96-3.84 1.2266-5.44.8-1.493-.4267-2.667-1.28-3.52-2.56-.853-1.3867-1.28-2.88-1.28-4.48 0-1.6.427-3.1467 1.28-4.64.853-1.6 2.293-2.7734 4.32-3.52 4.907-2.0267 9.6-3.4667 14.08-4.32 4.587-.8534 8.747-1.28 12.48-1.28 7.68 0 13.973 1.1733 18.88 3.52 5.013 2.3466 8.747 5.92 11.2 10.72 2.453 4.6933 3.68 10.7733 3.68 18.24V105.04c0 3.307-.8 5.867-2.4 7.68-1.6 1.707-3.893 2.56-6.88 2.56s-5.333-.853-7.04-2.56c-1.6-1.813-2.4-4.373-2.4-7.68v-7.6798h1.28c-.747 3.7328-2.24 6.9868-4.48 9.7598-2.133 2.667-4.853 4.747-8.16 6.24-3.307 1.493-7.093 2.24-11.36 2.24Z"></path><path fill="#fff" d="M376.135 115.28c-3.2 0-5.707-.853-7.52-2.56-1.707-1.813-2.56-4.373-2.56-7.68V50.8003h-7.36c-2.56 0-4.533-.64-5.92-1.92-1.387-1.3867-2.08-3.2533-2.08-5.6 0-2.4533.693-4.32 2.08-5.6 1.387-1.28 3.36-1.92 5.92-1.92h13.12l-5.76 5.28v-5.44c0-10.9867 2.773-19.2 8.32-24.64 5.547-5.54668 13.547-8.80001 24-9.76002l5.44-.479987c2.133-.213337 3.84.159995 5.12 1.119997 1.28.85333 2.133 2.02667 2.56 3.52.427 1.38667.48 2.82667.16 4.32-.32 1.49331-1.013 2.82671-2.08 4.00001-.96 1.0667-2.24 1.6533-3.84 1.76l-2.24.16c-6.08.4267-10.507 1.9733-13.28 4.64-2.773 2.6667-4.16 6.72-4.16 12.16v5.92l-2.56-2.56h16.16c2.56 0 4.533.64 5.92 1.92 1.387 1.28 2.08 3.1467 2.08 5.6 0 2.3467-.693 4.2133-2.08 5.6-1.387 1.28-3.36 1.92-5.92 1.92h-13.6V105.04c0 6.827-3.307 10.24-9.92 10.24Z"></path><path fill="#fff" d="M296.439 115.6c-6.507 0-11.894-1.173-16.16-3.52-4.267-2.453-7.467-6.08-9.6-10.88-2.027-4.7995-3.04-10.7729-3.04-17.9195v-38.72c0-3.4134.853-5.92 2.56-7.52 1.706-1.7067 4.16-2.56 7.36-2.56s5.653.8533 7.36 2.56c1.813 1.6 2.72 4.1066 2.72 7.52v39.04c0 5.5466 1.12 9.6533 3.36 12.32 2.24 2.6666 5.813 4 10.72 4 5.333 0 9.706-1.8134 13.12-5.44 3.413-3.7334 5.12-8.64 5.12-14.72v-35.2c0-3.4134.853-5.92 2.56-7.52 1.706-1.7067 4.16-2.56 7.36-2.56s5.653.8533 7.36 2.56c1.813 1.6 2.72 4.1066 2.72 7.52V105.04c0 6.827-3.254 10.24-9.76 10.24-3.094 0-5.494-.853-7.2-2.56-1.707-1.813-2.56-4.373-2.56-7.68V92.8805l2.24 4.8c-2.24 5.7595-5.654 10.1865-10.24 13.2795-4.48 3.094-9.814 4.64-16 4.64Z"></path><path fill="#fff" d="M219.96 115.6c-8.853 0-16.48-1.653-22.88-4.96-6.4-3.307-11.36-8-14.88-14.0798-3.413-6.08-5.12-13.28-5.12-21.6 0-8.1067 1.653-15.2 4.96-21.28 3.413-6.08 8.053-10.8267 13.92-14.24 5.973-3.52 12.747-5.28 20.32-5.28 5.547 0 10.507.9066 14.88 2.72 4.48 1.8133 8.267 4.4266 11.36 7.84 3.2 3.4133 5.6 7.5733 7.2 12.48 1.707 4.8 2.56 10.24 2.56 16.32 0 1.92-.693 3.4133-2.08 4.48-1.28.96-3.147 1.44-5.6 1.44h-51.36v-11.52h44.96l-2.56 2.4c0-4.9067-.747-9.0134-2.24-12.32-1.387-3.3067-3.467-5.8134-6.24-7.52-2.667-1.8134-6.027-2.72-10.08-2.72-4.48 0-8.32 1.0666-11.52 3.2-3.093 2.0266-5.493 4.96-7.2 8.8-1.6 3.7333-2.4 8.2133-2.4 13.44v1.12c0 8.7466 2.027 15.3066 6.08 19.68 4.16 4.2666 10.24 6.3998 18.24 6.3998 2.773 0 5.867-.32 9.28-.9598 3.52-.7467 6.827-1.9734 9.92-3.68 2.24-1.28 4.213-1.8134 5.92-1.6 1.707.1066 3.04.6933 4 1.76 1.067 1.0666 1.707 2.4 1.92 4 .213 1.4928-.107 3.0398-.96 4.6398-.747 1.6-2.08 2.987-4 4.16-3.733 2.347-8.053 4.107-12.96 5.28-4.8 1.067-9.28 1.6-13.44 1.6Z"></path></svg>
