<svg xmlns="http://www.w3.org/2000/svg" fill="none" viewBox="0 0 191 26"><path fill="#fff" d="M7.375 25.1H0V.80005h7.375V25.1Z"/><path fill="#fff" d="M24.1748 25.1h-7.375V.80005h7.375V25.1Z"/><path fill="#B0B0B0" d="M24.1748 25.1H7.375V.80005L24.1748 25.1Z"/><path fill="#fff" d="M25.6504 14.125c0-1.55.325-2.95 1.025-4.175.675-1.25 1.675-2.2 2.975-2.9 1.3-.7 2.85-1.05 4.65-1.05.275 0 .7.025 1.3.075 1.225.1 2.275.325 3.125.7.85.375 1.6.85 2.275 1.475v-1.8h6.45v18.675h-6.45v-1.8c-.625.65-1.4 1.15-2.35 1.525-.95.375-1.975.6-3.025.65-.225.025-.575.025-1.025.025-1.8 0-3.35-.35-4.7-1.025-1.35-.675-2.375-1.65-3.1-2.875-.725-1.225-1.075-2.625-1.075-4.15v-3.35h-.075Zm6.45 2.35c0 2.3 1.475 3.45 4.425 3.45 2.95 0 4.425-1.15 4.425-3.45v-1.4c0-2.325-1.475-3.5-4.425-3.5-2.95 0-4.425 1.175-4.425 3.5v1.4Zm19.975 8.625V12.25h-3.2V6.425l3.2-.05V.8h6.475l.025 5.6h4.575v5.85h-4.6V25.1m13.275 0h-6.475V6.4h6.475v18.7Zm15.925 0h-6.5l-7.75-18.7h6.5l4.5 11.1 4.5-11.125h6.475L87.7504 25.1Zm25.9746-2.7c-1.025 1.05-2.2 1.825-3.525 2.325-1.325.5-2.95.725-4.875.725-2 0-3.775-.35-5.325-1.05-1.5496-.7-2.7746-1.675-3.6746-2.9-.875-1.25-1.325-2.65-1.325-4.25v-3.1c0-1.625.425-3.05 1.3-4.275.85-1.225 2.05-2.175 3.55-2.825 1.4996-.675 3.1746-1 4.9996-1 2 0 3.75.375 5.3 1.075 1.525.725 2.725 1.75 3.6 3.1.85 1.35 1.3 2.9 1.3 4.675 0 .425-.05 1.05-.175 1.925l-13.55.025v.525c0 1.025.375 1.825 1.1 2.35.725.55 1.725.8 2.95.8 1.15 0 2.125-.15 2.95-.45.8-.3 1.6-.875 2.35-1.7l3.05 4.025Zm-5.125-9.05c0-.775-.35-1.375-1.05-1.775-.7-.4-1.6-.6-2.7-.6s-1.975.2-2.625.6c-.65.4-.95 1-.95 1.775h7.325ZM116.5.8h14c2.475 0 4.45.475 5.925 1.4 1.475.925 2.5 2.05 3.05 3.325.575 1.275.85 2.525.85 3.75 0 1.2-.3 2.425-.875 3.675s-1.6 2.3-3.05 3.2c-1.45.9-3.425 1.35-5.925 1.35h-7.55v7.625H116.5V.8Zm14 10.85c2.25 0 3.4-.825 3.4-2.475 0-1.725-1.15-2.575-3.425-2.575h-7.525v5.05h7.55Zm17.75 13.45h-6.45V.8h6.45v9.5h10.975V.8h6.45v24.3h-6.45v-9.625H148.25V25.1ZM167.15.8h14c2.475 0 4.45.475 5.925 1.4 1.475.925 2.5 2.05 3.05 3.325.575 1.275.85 2.525.85 3.75 0 1.2-.3 2.425-.875 3.675s-1.6 2.3-3.05 3.2c-1.45.9-3.425 1.35-5.925 1.35h-7.55v7.625h-6.425V.8Zm14 10.85c2.25 0 3.4-.825 3.4-2.475 0-1.725-1.15-2.575-3.425-2.575H173.6v5.05h7.55ZM72.7754 5.55h-8.375V.5h8.375v5.05Z"/></svg>
