<svg xmlns="http://www.w3.org/2000/svg" fill="none" viewBox="0 0 535 200"><path fill="#fff" d="M304.3 37.5c14.8-3.8 16.4-12.8 16.4-18.2C320.7 7 312-.7 294 0c-34.5 1.2-41.3 26.7-53 96-6.2 37.1-15.9 93-57.4 93-10.5 0-25.6-9.6-25.6-29-5 3.2-6.3 7-5.8 11.7a52.9 52.9 0 0 1-8.3-37.2c.4-1.2-.2-1.6-1.1-1.2-6.6 3.6-17.3 12.2-18.5 25.4-2.6 24.5 17.8 41.3 53.5 41.3 61.9 0 82.5-47.8 92.4-99l1-5.2c4 .2 8-.3 11.6-2 5.2-2.2 6.5-11.4 6-19-4.5.8-9.5 1.3-14.2 1.4l2.4-14.5c5.2-32.5 8-50.2 19-50.2 6 0 9.7 7.2 6.3 24.9-.2 1.6 1 1.3 2 1.1ZM89.3 158.5c31.5 0 63.1-75.9 64.2-106.4.7-18.8-9.8-30-26-30-5.6 0-12.1 1.5-16 4.6-1.2 1.1-.9 1.3-.4 1.7l.5.4c4.9 4 12.5 12.5 11.2 36.1-1 17.7-7.7 60.1-18.4 69.8-1.4 1.3-3.2 1.6-3.6-.5-1.2-6.4-1.5-22.8-2-51.2l-.3-10.7C98 38.2 95 32.6 85.7 32.6c-8.3 0-12.7 1.1-20.6 5.1-1.1.7-1.3 1.2-.9 2.3 3.6 7 4.3 9 8 77.4l-1.5 2.8c-3 5.4-7 12.5-10.5 12.5-6.8 0-8.8-18.4-12.2-53l-.7-8.5c-1.1-16.1-2-26.5-16.5-26.5-12.4 0-25.4 7-30.1 14.8l-.1.2c-.4.7-1.3 2.3.3 2 13.9-2.1 14.6 4.3 16.7 23l.2 1.3c6.7 59.5 9.8 72.5 27.1 72.5 11.7 0 19.3-9 28-28.7 1.6 23.3 5.9 28.7 16.4 28.7ZM432.6 24.4c1 7.1 1.1 7.7.6 12.4-.3 1.2.6 1.8 1.3 1.8 16.2 1.2 28.3-7 28.3-20.8 0-7.2-3.4-11.7-13.3-12.8-8.7-1-19 4.2-17.5 15l.6 4.4ZM488.4 49.2c-7.4 4-30.6 20.9-32.4 63-1.3 27.2 12 44.7 35.3 44.7 25.6 0 42-35 43.3-55.9 1.1-17.5-3.8-25.8-9.4-27.8-4.7-1.8-13.3-2-21.6 4-.7.7-.9 1.4-.4 2.3a63.7 63.7 0 0 1 6.3 28.3c0 18-5.4 30.7-14.6 30.7-3.4 0-11.5-2-10.8-22.7.9-25.5 18-53.6 36.8-61.4.9-.5 1.3-1.4.9-2-5-7.7-22.9-9.5-33.4-3.2ZM411.2 142.2l-1.4 7.3v.3c-.2.7-.4 1.1.2 2 6.5 7 17.5 7.8 25-4.3 4.1-21.4 8-38.6 11.5-54 2.2-9.5 4.2-18.4 6-27 2.4-12-4.8-16.2-12.8-16.9-5.4-.4-11.3 1-18.7 6.1-1.3.9-1.5 1.6-.6 2 3.6 1.8 3.1 9.2-3.2 49.6-3 19.4-4.8 28.7-6 35Z"></path><path fill="#fff" d="m383.8 55.2-15 91.8c-3.2 19.1 5.8 34 23.7 34a24 24 0 0 0 19.3-9.3c.7-.9 1-1.8-.2-2-14.1-1.6-20.9-8.5-18-24.7 8.4-44.8 12.6-66.7 16.2-85l8-42.7C420 7 414.4 1.2 406.3.5a52.2 52.2 0 0 0-26 6.3c-1.4.9-1.6 1.3-.5 1.8 8.1 2.4 10 11.2 4 46.6ZM317.1 55.5c-6 3.6-24.9 18.8-26.7 56.8-1.3 27.8 10.3 45.7 30.8 45.7 26.9 0 43.3-39 45.5-61.5 1.6-14.5-3.6-20.4-7.2-23.3-2.2-1.8-13.2-2-21.5 4-.7.7-.9 1.4-.4 2.3a52.2 52.2 0 0 1 4 23.8c-.7 20-4.5 35.2-12.4 35.2-3.3 0-11.4-2-10.7-22.7.9-22.8 15-48.4 31.2-55.2.9-.4 1.3-1.3.9-2-5-7.6-23-9.4-33.5-3.1ZM199.8 51.4c-34.6 0-49.2 36.6-49.9 62.4-.6 25.2 10.8 44.2 36.2 44.2 25.8 0 36.3-20 36.3-33.4 0-1.6-.7-2.3-1.5-1.4-.7.7-1.3 1.8-2.1 3-3 4.7-7.6 12.3-19 12.3-13.5 0-23.4-11.4-20.5-33.9 1.6-11.6 7-36.8 19.1-36.8 3.4 0 6 1.8 5.8 7.4a31.2 31.2 0 0 1-20.8 29.4c-.8.3-1.6.7-.3 2 3.4 3.6 11.3 5.9 17.8 5.9 16 0 29.4-14.2 29.4-33 0-19.3-14.4-28-30.5-28Z"></path></svg>
